<svg xmlns="http://www.w3.org/2000/svg" version="1.1" xmlns:xlink="http://www.w3.org/1999/xlink" xmlns:svgjs="http://svgjs.dev/svgjs" width="1000" height="1000"><g clip-path="url(#SvgjsClipPath1280)"><rect width="1000" height="1000" fill="#002679"></rect><g transform="matrix(0.9765625,0,0,0.9765625,0,0)"><svg xmlns="http://www.w3.org/2000/svg" version="1.1" xmlns:xlink="http://www.w3.org/1999/xlink" xmlns:svgjs="http://svgjs.dev/svgjs" width="1024" height="1024"><svg xmlns="http://www.w3.org/2000/svg" viewBox="0 0 1024 1024"><g stroke-width="2" fill="none"><path stroke="#88844d" vector-effect="non-scaling-stroke" d="M362.838 184.203a9.53 9.53 0 0 0-9.564-9.497l-2.32.008a9.53 9.53 0 0 0-9.496 9.563l.144 41.52a9.53 9.53 0 0 0 9.564 9.497l2.32-.008a9.53 9.53 0 0 0 9.496-9.563l-.145-41.52"></path><path stroke="#899baa" vector-effect="non-scaling-stroke" d="M493.09 181.62c-.49 1.84-.15 7.35.17 9.54q1 6.74.68 11.43c-.78 11.38 2 24.11 5.38 34.65 1.6 5.01 5.65 13.04 5.38 19.28-.2 4.77-4.34 6.04-9.12 8.8q-4.42 2.56-5.53 7.22c-1.9 7.95-2.57 15.7-10.62 19.18q-6.28 2.72-13.56 2.91-8.17.22-19.85.18-3.45-.01-7.78 1.5a2.76 2.76 0 0 0-1.84 2.6v5.94a2.59 2.59 0 0 0 2.48 2.59q22.86.97 42.24 12.93 23.33 14.41 34 42.54.21.56 2.51 7.5a1.55 1.54 88.5 0 0 1.05 1c12.14 3.4 23.41 8.46 32.6 16.76 15.09 13.62 25.05 30.76 25.98 51.3q1.3 28.82-15.39 52.17c-10.59 14.82-26.54 24.3-44.2 28.4q-6.19 1.44-21.95 1.39-41.6-.12-163.01-.02c-4.89 0-9.17-.6-10.83 3.92-3.11 8.46-3.39 15.37-.65 24.22 2.99 9.68 5.96 19.23 6.66 26.99.74 8.06-3.45 13.81-7.73 21.11-3.17 5.4-3.61 12.78-2.68 18.64 1.48 9.34 6.87 16.7 13.16 24.83 5.89 7.6 12.26 12.57 21.07 15.99 10.72 4.15 23.57 6.53 33.65 8.82 9.29 2.11 17.65 4.85 24.24 10.7 5.3 4.71 4.47 11.15 1.64 16.86q-3.66 7.41-9.89 18.47c-7.7 13.67-12.65 24.52-15.11 37.78q-1.7 9.16-3.99 22.52-1 5.88-5.16 22.29-1.91 7.55 1.63 13.74c2.58 4.5 7.74 5.47 12.54 4.89q9.21-1.12 26.68-2.77 5.51-.52 8.4-4.27c1.35-1.75 2.26-4.9 3.31-6.51q3.16-4.83 8.88-5.06 8.51-.34 16.69 3.49c5.15 2.41 10.31 5.53 15.88 7.61q8.42 3.14 20.85 7.37c8.87 3.02 19.39 7.94 24.66 16.51 3.81 6.18 8.14 10.17 15.4 10.73q9.75.75 18.91-5.35 1.27-.85 6.92-5.86c2.93-2.6 7.17-2.42 12.04-1.91q9.98 1.05 20.01-.35 3.76-.53 14.34-3.88 10.61-3.35 14.2-4.5 9.23-2.95 13.86-3.6 20.56-2.87 40.71-.03 5.86.83 9.13 2.34c6.07 2.82 10.7 4.39 16.71 2.97 11.67-2.76 6.97-18.39 4.36-25.81q-2.01-5.69-5.2-14.62-4.07-11.4 3.68-19.94c6.4-7.05 14.34-13.39 22.62-19.69q4.52-3.43 8.19-4.8 6.49-2.43 7.25-2.79 11.25-5.37 10.8-16.65c-.54-13.35-14.96-26.57-24.85-33.23q-12.35-8.31-16.31-11.18-9.47-6.86-20.23-18-5.45-5.64-8.33-13.75c-2.22-6.23-.77-13.42-2.72-19.64-2.19-6.93-6.12-12.92-8.27-19.79q-3.11-9.96 4.98-14.88 6.98-4.24 10.46-5.87c16.58-7.75 28.33-12.73 39.36-19.36q8.45-5.08 29.02-16.44c2.62-1.45 5.72-3.24 7.35-4.93 5.26-5.46 9.78-10.68 17.74-10.56q4.71.07 7.62 2.82c5.08 4.79 11.21 12.49 17.17 5.51q1.59-1.86 2.37-3.64c8.21-18.57 8.88-46.42-10.59-58.76q-3.89-2.46-6.65-7.55c-2.34-4.3-2.48-10.27-2.37-15.07q.39-17.78.4-21.25c.02-8.46 1.1-17.74.67-25.93q-.27-5.15-3.95-10.72c-2.65-4.01-8.75-7.45-12.68-10.05-6.61-4.36-12.93-12.18-5.74-19.35 2.12-2.12 6.26-5.8 7.79-8.67q2.37-4.44 2.59-10.31c.66-17.53-2.9-36.18-8.71-52.01-2.68-7.29-7.52-15.23-14.15-19.53-6.7-4.36-13-8.25-17.39-14.04-2.59-3.42-5.65-8.84-8.85-12.52q-8.51-9.75-19.29-17.33c-6.06-4.26-15.94-9.92-20.98-.97-1.52 2.68-2.61 5.63-4.68 8.21-6.12 7.64-15.89 13.25-24.78 17.79q-18.51 9.45-33.99 17.69c-2.61 1.4-6.79 3.3-9.32 3.16q-7.85-.46-8.86-7.46-.42-2.89 2.31-9.35 2.04-4.82 4.82-13.07c1.65-4.92 2.8-11.05-3.75-11.9-4.59-.6-10.53 2.04-15.15 4.42-3 1.55-5.13 1.79-8.11.47q-1.17-.52-7.75-3.65c-4.23-2.02-7.41-2.39-12.74-3.59-10.22-2.29-9.49-12.36-7.86-20.31q.83-4.07.55-6.86a4.99 4.96-58.8 0 0-.3-1.24q-2.77-7.34-9.26-11.64a5.13 5.11-18.5 0 0-1.13-.56q-3.94-1.36-7.98-1.76c-7.83-.78-14.08-1.48-21.73-3.69q-8.11-2.35-16.09-4.66-3.3-.96-6.1-.21a1.44 1.43-.4 0 0-1.01 1.02"></path><path stroke="#88844d" vector-effect="non-scaling-stroke" d="M448.653 229.8a10.47 10.47 0 0 0-.646-14.793l-.412-.379a10.47 10.47 0 0 0-14.793.646l-24.875 27.147a10.47 10.47 0 0 0 .645 14.792l.413.379a10.47 10.47 0 0 0 14.793-.646l24.875-27.147M297.72 254.19c1.66-3.19 1.85-6.96-.76-9.58q-11.81-11.84-30.12-29.3c-5.09-4.85-11.32-3.73-15.73 1.32-2.28 2.62-2.21 5.73-1.72 8.99.57 3.75 4.86 7.2 8.63 10.8q14.12 13.48 21.74 20.36c5.76 5.19 14.16 4.7 17.96-2.59m123.92 51.53q-2.75-10.22-8.77-20.35c-12.47-20.99-34.09-33.08-58.37-35.1q-4.31-.36-10.34.39-18.42 2.27-32.99 11.97-3.49 2.32-8.63 7.49-6.71 6.75-7.86 8.36-7.83 10.92-11.37 21.32c-9.64 28.37 1 59.58 25.08 77.31 2.31 1.7 4.36 1.8 7.1 1.36q12.02-1.93 23.95-4.05a1.62 1.61-87.7 0 0 1.28-1.19c1.33-5.3 3.04-11.92 5.04-16.54 10.72-24.83 32.55-40.49 58.66-46.52 5.01-1.16 9.04-1.27 15.52-1.97a1.98 1.97 79.5 0 0 1.7-2.48m-155.867 6.168a10.42 10.42 0 0 0-10.864-9.956l-36.106 1.577a10.42 10.42 0 0 0-9.955 10.864l.039.9a10.42 10.42 0 0 0 10.864 9.955l36.106-1.577a10.42 10.42 0 0 0 9.956-10.864l-.04-.9"></path><path stroke="#899baa" vector-effect="non-scaling-stroke" d="m496 390.72-.43-1.2a1.98 1.59 38.8 0 1-.07-.32c-3.74-27.49-18.53-49.61-44.73-58.67-20.93-7.24-43.65-3.45-61.96 8.8-14.74 9.87-23.62 25.15-26.99 42.46q-.58 3-1.88 12.68-.48 3.56-3.96 2.96c-19.65-3.42-41.62 1.34-56.07 15.74-9.97 9.94-13.47 23.67-13.08 37.54q.61 21.87 16.94 35.8 13.17 11.24 30.25 11.24 103.94-.04 153.08.06 16.17.03 20.25-.61c10.63-1.68 18.3-5.47 26.13-12.26q5.18-4.49 6.62-6.07c13.4-14.71 17.17-34.39 9.49-52.78q-5.38-12.9-16.43-21.46c-10.23-7.94-22.6-10.27-35.13-12.23a2.59 2.59 0 0 1-2.03-1.68"></path><path stroke="#88844d" vector-effect="non-scaling-stroke" d="M286.365 375.509a10.19 10.19 0 0 0-14.356-1.256l-32.373 27.164a10.19 10.19 0 0 0-1.256 14.356l.335.398a10.19 10.19 0 0 0 14.356 1.256l32.373-27.164a10.19 10.19 0 0 0 1.256-14.356l-.335-.398"></path></g><rect fill="#f6c836" x="-10.69" y="-30.29" transform="rotate(-.2 58904.224 -100800.995)" width="21.38" height="60.58" rx="9.53"></rect><path fill="#f7f5f0" d="M493.09 181.62a1.44 1.43-.4 0 1 1.01-1.02q2.8-.75 6.1.21 7.98 2.31 16.09 4.66c7.65 2.21 13.9 2.91 21.73 3.69q4.04.4 7.98 1.76a5.13 5.11-18.5 0 1 1.13.56q6.49 4.3 9.26 11.64a4.99 4.96-58.8 0 1 .3 1.24q.28 2.79-.55 6.86c-1.63 7.95-2.36 18.02 7.86 20.31 5.33 1.2 8.51 1.57 12.74 3.59q6.58 3.13 7.75 3.65c2.98 1.32 5.11 1.08 8.11-.47 4.62-2.38 10.56-5.02 15.15-4.42 6.55.85 5.4 6.98 3.75 11.9q-2.78 8.25-4.82 13.07-2.73 6.46-2.31 9.35 1.01 7 8.86 7.46c2.53.14 6.71-1.76 9.32-3.16q15.48-8.24 33.99-17.69c8.89-4.54 18.66-10.15 24.78-17.79 2.07-2.58 3.16-5.53 4.68-8.21 5.04-8.95 14.92-3.29 20.98.97q10.78 7.58 19.29 17.33c3.2 3.68 6.26 9.1 8.85 12.52 4.39 5.79 10.69 9.68 17.39 14.04 6.63 4.3 11.47 12.24 14.15 19.53 5.81 15.83 9.37 34.48 8.71 52.01q-.22 5.87-2.59 10.31c-1.53 2.87-5.67 6.55-7.79 8.67-7.19 7.17-.87 14.99 5.74 19.35 3.93 2.6 10.03 6.04 12.68 10.05q3.68 5.57 3.95 10.72c.43 8.19-.65 17.47-.67 25.93q-.01 3.47-.4 21.25c-.11 4.8.03 10.77 2.37 15.07q2.76 5.09 6.65 7.55c19.47 12.34 18.8 40.19 10.59 58.76q-.78 1.78-2.37 3.64c-5.96 6.98-12.09-.72-17.17-5.51q-2.91-2.75-7.62-2.82c-7.96-.12-12.48 5.1-17.74 10.56-1.63 1.69-4.73 3.48-7.35 4.93q-20.57 11.36-29.02 16.44c-11.03 6.63-22.78 11.61-39.36 19.36q-3.48 1.63-10.46 5.87-8.09 4.92-4.98 14.88c2.15 6.87 6.08 12.86 8.27 19.79 1.95 6.22.5 13.41 2.72 19.64q2.88 8.11 8.33 13.75 10.76 11.14 20.23 18 3.96 2.87 16.31 11.18c9.89 6.66 24.31 19.88 24.85 33.23q.45 11.28-10.8 16.65-.76.36-7.25 2.79-3.67 1.37-8.19 4.8c-8.28 6.3-16.22 12.64-22.62 19.69q-7.75 8.54-3.68 19.94 3.19 8.93 5.2 14.62c2.61 7.42 7.31 23.05-4.36 25.81-6.01 1.42-10.64-.15-16.71-2.97q-3.27-1.51-9.13-2.34-20.15-2.84-40.71.03-4.63.65-13.86 3.6-3.59 1.15-14.2 4.5-10.58 3.35-14.34 3.88-10.03 1.4-20.01.35c-4.87-.51-9.11-.69-12.04 1.91q-5.65 5.01-6.92 5.86-9.16 6.1-18.91 5.35c-7.26-.56-11.59-4.55-15.4-10.73-5.27-8.57-15.79-13.49-24.66-16.51q-12.43-4.23-20.85-7.37c-5.57-2.08-10.73-5.2-15.88-7.61q-8.18-3.83-16.69-3.49-5.72.23-8.88 5.06c-1.05 1.61-1.96 4.76-3.31 6.51q-2.89 3.75-8.4 4.27-17.47 1.65-26.68 2.77c-4.8.58-9.96-.39-12.54-4.89q-3.54-6.19-1.63-13.74 4.16-16.41 5.16-22.29 2.29-13.36 3.99-22.52c2.46-13.26 7.41-24.11 15.11-37.78q6.23-11.06 9.89-18.47c2.83-5.71 3.66-12.15-1.64-16.86-6.59-5.85-14.95-8.59-24.24-10.7-10.08-2.29-22.93-4.67-33.65-8.82-8.81-3.42-15.18-8.39-21.07-15.99-6.29-8.13-11.68-15.49-13.16-24.83-.93-5.86-.49-13.24 2.68-18.64 4.28-7.3 8.47-13.05 7.73-21.11-.7-7.76-3.67-17.31-6.66-26.99-2.74-8.85-2.46-15.76.65-24.22 1.66-4.52 5.94-3.92 10.83-3.92q121.41-.1 163.01.02 15.76.05 21.95-1.39c17.66-4.1 33.61-13.58 44.2-28.4q16.69-23.35 15.39-52.17c-.93-20.54-10.89-37.68-25.98-51.3-9.19-8.3-20.46-13.36-32.6-16.76a1.55 1.54 88.5 0 1-1.05-1q-2.3-6.94-2.51-7.5-10.67-28.13-34-42.54-19.38-11.96-42.24-12.93a2.59 2.59 0 0 1-2.48-2.59v-5.94a2.76 2.76 0 0 1 1.84-2.6q4.33-1.51 7.78-1.5 11.68.04 19.85-.18 7.28-.19 13.56-2.91c8.05-3.48 8.72-11.23 10.62-19.18q1.11-4.66 5.53-7.22c4.78-2.76 8.92-4.03 9.12-8.8.27-6.24-3.78-14.27-5.38-19.28-3.38-10.54-6.16-23.27-5.38-34.65q.32-4.69-.68-11.43c-.32-2.19-.66-7.7-.17-9.54"></path><rect fill="#f6c836" x="-10.75" y="-28.88" transform="rotate(42.5 -89.433 668.728)" width="21.5" height="57.76" rx="10.47"></rect><path fill="#f6c836" d="M296.96 244.61c2.61 2.62 2.42 6.39.76 9.58-3.8 7.29-12.2 7.78-17.96 2.59q-7.62-6.88-21.74-20.36c-3.77-3.6-8.06-7.05-8.63-10.8-.49-3.26-.56-6.37 1.72-8.99 4.41-5.05 10.64-6.17 15.73-1.32q18.31 17.46 30.12 29.3m124.68 61.11a1.98 1.97 79.5 0 1-1.7 2.48c-6.48.7-10.51.81-15.52 1.97-26.11 6.03-47.94 21.69-58.66 46.52-2 4.62-3.71 11.24-5.04 16.54a1.62 1.61-87.7 0 1-1.28 1.19q-11.93 2.12-23.95 4.05c-2.74.44-4.79.34-7.1-1.36-24.08-17.73-34.72-48.94-25.08-77.31q3.54-10.4 11.37-21.32 1.15-1.61 7.86-8.36 5.14-5.17 8.63-7.49 14.57-9.7 32.99-11.97 6.03-.75 10.34-.39c24.28 2.02 45.9 14.11 58.37 35.1q6.02 10.13 8.77 20.35"></path><rect fill="#f6c836" x="-28.49" y="-10.87" transform="rotate(-2.5 7304.249 -5281.55)" width="56.98" height="21.74" rx="10.42"></rect><path fill="#f7f5f0" d="M496 390.72a2.59 2.59 0 0 0 2.03 1.68c12.53 1.96 24.9 4.29 35.13 12.23q11.05 8.56 16.43 21.46c7.68 18.39 3.91 38.07-9.49 52.78q-1.44 1.58-6.62 6.07c-7.83 6.79-15.5 10.58-26.13 12.26q-4.08.64-20.25.61-49.14-.1-153.08-.06-17.08 0-30.25-11.24-16.33-13.93-16.94-35.8c-.39-13.87 3.11-27.6 13.08-37.54 14.45-14.4 36.42-19.16 56.07-15.74q3.48.6 3.96-2.96 1.3-9.68 1.88-12.68c3.37-17.31 12.25-32.59 26.99-42.46 18.31-12.25 41.03-16.04 61.96-8.8 26.2 9.06 40.99 31.18 44.73 58.67a1.98 1.59 38.8 0 0 .07.32z"></path><rect fill="#f6c836" x="-31.32" y="-10.45" transform="rotate(-40 675.05 -162.741)" width="62.64" height="20.9" rx="10.19"></rect></svg></svg></g></g><defs><clipPath id="SvgjsClipPath1280"><rect width="1000" height="1000" x="0" y="0" rx="250" ry="250"></rect></clipPath></defs></svg>